<svg width="518" height="484" viewBox="0 0 518 484" xmlns="http://www.w3.org/2000/svg" xmlns:xlink="http://www.w3.org/1999/xlink"><defs><path d="M0 0h550v504H0V0zm253.71 125.223c4.865 2.083 3.452 11.427 3.452 11.427s-3.453 6.14-7.97 6.14c-4.514 0-15.936-1.718-27.267 0-11.33 1.716-36.534 14.515-61.436 14.515S89.984 143.47 89.984 143.47l-.637 1.49c-1.374-.03-5.61-1.442-10.343-3.005-3.766-1.244-7.844-2.583-11.04-3.395-6.388-1.624-8.466-3.726-9.045-1.91-.685 2.146 2.278 4.403 2.662 5.14.385.735-.777 2.135-6.063 1-11.88-2.554-22.44-16.33-23.42-14.77-1.147 1.838 7.672 15.812 18.056 23.387 6.94 5.064 19.345 6.373 26.507 7.984 3.552.8 5.925 1.19 5.925 1.19l-8.727 31.39s47.953 12.827 78.9 14.026c30.95 1.2 56.45-8.205 62.146-8.56 5.694-.352 11.682 2.808 18.67 11.258 6.77 8.187 8.853 21.863 8.853 31.642 0 19.87-10.793 40.22-16.776 44.854-5.982 4.633-82.74 31.597-92.315 41.286-9.576 9.69-47.527 97.652-47.543 118.67-.002 2 16.62 3 16.62 3s-1.092 7.006-3.596 9.265c-2.503 2.26-24.19 4.11-31.856 8.516-4.414 2.536-6.068 9.905-5.382 11.31.686 1.405 63.843 1.37 65.15 0 1.31-1.37 0-28.088 0-28.088s13.404-1.19 13.404-4c0-29.746 20.35-68.498 49.287-84.902 28.935-16.404 70.95-27.265 105.936-23.433 34.986 3.832 74.69 24.21 88.83 43.15 12.174 16.303 5.318 63.11 5.318 73.45 0 1.988 9.66 2 9.66 2s-3.667 20.155-2.9 21.577c.765 1.42 65.07 2.75 69.64 2.246 4.57-.504-.068-9.313-5.6-12.31-5.697-3.088-24.083-6.064-31.154-8.006-1.964-.54-1.68-3.19-1.68-3.508 0 0 18.082.187 18.38-2 2.237-16.37-6.608-87.26-13.883-104.576-6.04-14.375-78.41-55.56-78.41-55.56s-6.36-13.223-8.49-37.89c-2.125-24.666 6.68-70.974 12.66-77.782 5.986-6.81 50.295-10.735 85.01-32.64 34.714-21.906 63.414-49.06 63.414-53.24 0-.637-3.38-1.902-6.382-3.71-3.128-1.885-5.882-4.3-5.882-4.3s12.716-9.01 19.025-23.608c6.31-14.598 7.942-33.408 4.268-33.408-3.675 0-5.046 12.73-12.483 22.07-7.437 9.337-11.93 9.538-12.796 8.466-1.69-2.093-1.287-9.192-2.044-13.78-.448-2.718-2.168-2.997-2.964-2.627-2.83 1.317-3.632 24.125-8.266 28.91 0 0-1.03-1.056-1.836-2.122-.718-.95-1.17-1.954-1.93-1.52-9.965 5.665-29.01 32.398-63.644 44.787-34.634 12.39-68.284 4.404-77.938 6.78-6.53 1.606-26.513 10.36-30.736 10.36-4.224 0-8.568-1.886-11.913-6.018-2.126-2.624-5.522-9.616-5.013-17.605l1.54 1.66c.21-2.62 3.292-22.02 3.472-24.804.604-9.36-3.456-17.14-6.316-22.238-1.364-2.43-4.2-4.386-7.48-6.033-1.045-.523-2.622.867-2.622.867s0-1.926-1.328-2.448c-1.328-.52-10.02-2.4-13.39-2.17-6.835.47-18.365 3.74-25.825 12.12-5.133 5.767-7.414 14.753-7.18 20.327l1.064-1.385c.175 2.022.534 3.94.962 5.7 1.678 6.9 1.445 11.56-.054 14.26-1.5 2.698.62 5.2 3.496 5.2s.98 5.525 1.213 6.513c.237.99 2.646.873 2.646.873s-1.343 1.97-.993 2.91c.35.94 2.33.818 2.55 1.277.22.46-.986 6.035.42 7.896 1.517 2.006 7.603-.565 7.603-.565s3.44-1.217 8.304.866z" id="a"/><filter x="-50%" y="-50%" width="200%" height="200%" filterUnits="objectBoundingBox" id="b"><feOffset in="SourceAlpha" result="shadowOffsetOuter1"/><feGaussianBlur stdDeviation="7.5" in="shadowOffsetOuter1" result="shadowBlurOuter1"/><feColorMatrix values="0 0 0 0 1 0 0 0 0 1 0 0 0 0 1 0 0 0 0.7 0" in="shadowBlurOuter1" result="shadowMatrixOuter1"/><feMerge><feMergeNode in="shadowMatrixOuter1"/><feMergeNode in="SourceGraphic"/></feMerge></filter></defs><g transform="translate(-17 -12)" fill="none" fill-rule="evenodd"><mask id="c" fill="#fff"><use xlink:href="#a"/></mask><use fill-opacity="0" fill="#000" xlink:href="#a"/><path d="M253.71 125.223c4.865 2.083 3.452 11.427 3.452 11.427s-3.453 6.14-7.97 6.14c-4.514 0-15.936-1.718-27.267 0-11.33 1.716-36.534 14.515-61.436 14.515S89.984 143.47 89.984 143.47l-.637 1.49c-1.374-.03-5.61-1.442-10.343-3.005-3.766-1.244-7.844-2.583-11.04-3.395-6.388-1.624-8.466-3.726-9.045-1.91-.685 2.146 2.278 4.403 2.662 5.14.385.735-.777 2.135-6.063 1-11.88-2.554-22.44-16.33-23.42-14.77-1.147 1.838 7.672 15.812 18.056 23.387 6.94 5.064 19.345 6.373 26.507 7.984 3.552.8 5.925 1.19 5.925 1.19l-8.727 31.39s47.953 12.827 78.9 14.026c30.95 1.2 56.45-8.205 62.146-8.56 5.694-.352 11.682 2.808 18.67 11.258 6.77 8.187 8.853 21.863 8.853 31.642 0 19.87-10.793 40.22-16.776 44.854-5.982 4.633-82.74 31.597-92.315 41.286-9.576 9.69-47.527 97.652-47.543 118.67-.002 2 16.62 3 16.62 3s-1.092 7.006-3.596 9.265c-2.503 2.26-24.19 4.11-31.856 8.516-4.414 2.536-6.068 9.905-5.382 11.31.686 1.405 63.843 1.37 65.15 0 1.31-1.37 0-28.088 0-28.088s13.404-1.19 13.404-4c0-29.746 20.35-68.498 49.287-84.902 28.935-16.404 70.95-27.265 105.936-23.433 34.986 3.832 74.69 24.21 88.83 43.15 12.174 16.303 5.318 63.11 5.318 73.45 0 1.988 9.66 2 9.66 2s-3.667 20.155-2.9 21.577c.765 1.42 65.07 2.75 69.64 2.246 4.57-.504-.068-9.313-5.6-12.31-5.697-3.088-24.083-6.064-31.154-8.006-1.964-.54-1.68-3.19-1.68-3.508 0 0 18.082.187 18.38-2 2.237-16.37-6.608-87.26-13.883-104.576-6.04-14.375-78.41-55.56-78.41-55.56s-6.36-13.223-8.49-37.89c-2.125-24.666 6.68-70.974 12.66-77.782 5.986-6.81 50.295-10.735 85.01-32.64 34.714-21.906 63.414-49.06 63.414-53.24 0-.637-3.38-1.902-6.382-3.71-3.128-1.885-5.882-4.3-5.882-4.3s12.716-9.01 19.025-23.608c6.31-14.598 7.942-33.408 4.268-33.408-3.675 0-5.046 12.73-12.483 22.07-7.437 9.337-11.93 9.538-12.796 8.466-1.69-2.093-1.287-9.192-2.044-13.78-.448-2.718-2.168-2.997-2.964-2.627-2.83 1.317-3.632 24.125-8.266 28.91 0 0-1.03-1.056-1.836-2.122-.718-.95-1.17-1.954-1.93-1.52-9.965 5.665-29.01 32.398-63.644 44.787-34.634 12.39-68.284 4.404-77.938 6.78-6.53 1.606-26.513 10.36-30.736 10.36-4.224 0-8.568-1.886-11.913-6.018-2.126-2.624-5.522-9.616-5.013-17.605l1.54 1.66c.21-2.62 3.292-22.02 3.472-24.804.604-9.36-3.456-17.14-6.316-22.238-1.364-2.43-4.2-4.386-7.48-6.033-1.045-.523-2.622.867-2.622.867s0-1.926-1.328-2.448c-1.328-.52-10.02-2.4-13.39-2.17-6.835.47-18.365 3.74-25.825 12.12-5.133 5.767-7.414 14.753-7.18 20.327l1.064-1.385c.175 2.022.534 3.94.962 5.7 1.678 6.9 1.445 11.56-.054 14.26-1.5 2.698.62 5.2 3.496 5.2s.98 5.525 1.213 6.513c.237.99 2.646.873 2.646.873s-1.343 1.97-.993 2.91c.35.94 2.33.818 2.55 1.277.22.46-.986 6.035.42 7.896 1.517 2.006 7.603-.565 7.603-.565s3.44-1.217 8.304.866z" stroke="#FFF" stroke-width="2" filter="url(#b)" mask="url(#c)"/></g></svg>