<svg width="65" height="60" viewBox="0 0 65 60" xmlns="http://www.w3.org/2000/svg"><path d="M31.052 13.06c.65.276.46 1.515.46 1.515s-1.644.21-2.17.118c-1.334-.232-1.99-.727-3.5-.5-1.513.228-5.374 3.12-8.697 3.12-3.323 0-9.408-1.834-9.408-1.834l-.085.196c-.183-.005-.748-.192-1.38-.4-.502-.164-1.046-.34-1.473-.45-.854-.214-1.13-.493-1.21-.252-.09.284.305.583.356.68.052.1-.103.284-.81.134-1.584-.34-2.993-2.166-3.124-1.96-.153.245 1.024 2.097 2.41 3.1.926.672 2.58.846 3.537 1.06.473.105.79.157.79.157l-1.165 4.16s6.398 1.7 10.528 1.86c4.13.16 7.533-1.088 8.293-1.135.76-.047 1.558.372 2.49 1.492.904 1.085 1.182 2.898 1.182 4.195 0 2.633-1.44 5.33-2.24 5.944-.797.615-11.04 4.19-12.318 5.474-1.277 1.284-6.34 12.944-6.343 15.73-.002.265 2.216.398 2.216.398s-.145.928-.48 1.228c-.334.3-3.228.544-4.25 1.128-.59.337-.81 1.314-.72 1.5.093.187 8.52.182 8.695 0 .176-.18 0-3.723 0-3.723s1.79-.158 1.79-.53c0-3.943 2.715-9.08 6.576-11.254 3.86-2.173 9.468-3.613 14.136-3.105 4.67.508 9.966 3.21 11.854 5.72 1.624 2.16.71 8.365.71 9.735 0 .264 1.288.266 1.288.266s-.49 2.67-.387 2.86c.102.188 8.683.364 9.293.298.61-.067-.01-1.235-.747-1.632-.76-.41-3.213-.804-4.157-1.06-.26-.073-.223-.424-.223-.466 0 0 2.412.024 2.452-.266.298-2.17-.882-11.566-1.852-13.86-.806-1.907-10.463-7.366-10.463-7.366s-.85-1.753-1.134-5.022c-.284-3.27.89-9.408 1.69-10.31.798-.903 6.71-1.424 11.342-4.327 4.633-2.904 8.462-6.503 8.462-7.058 0-.085-.45-.253-.85-.492-.42-.25-.786-.57-.786-.57s1.698-1.195 2.54-3.13c.84-1.935 1.06-4.428.57-4.428-.49 0-.674 1.688-1.667 2.925-.992 1.238-1.592 1.265-1.707 1.123-.227-.278-.173-1.22-.274-1.827-.06-.36-.29-.396-.395-.347-.377.175-.484 3.2-1.102 3.833 0 0-.138-.14-.245-.28-.096-.127-.156-.26-.258-.203-1.33.75-3.87 4.295-8.492 5.937-4.622 1.64-9.112.583-10.4.898-.872.213-2.608 1.373-3.172 1.373-.562 0-.995-.277-1.442-.825-.283-.348-.48-1.246-.41-2.305l.205.22c.03-.348.44-2.92.464-3.288.08-1.24-.46-2.272-.842-2.948-.183-.322-.56-.58-1-.8-.138-.07-.35.116-.35.116s0-.256-.176-.325c-.177-.07-1.337-.318-1.787-.287-.91.062-2.45.495-3.445 1.606-.685.764-.99 1.956-.96 2.695l.143-.185c.023.268.07.522.128.755.224.915.192 1.533-.008 1.89-.2.358.083.69.467.69s.13.732.162.863c.03.13.352.116.352.116s-.18.26-.134.384c.046.125.31.11.34.17.03.06-.132.8.056 1.046.202.266 1.014-.074 1.014-.074s.592-.162 1.242.114z" fill="#9C72B8" fill-rule="evenodd"/></svg>