<?xml version="1.0" encoding="UTF-8" standalone="no"?>
<svg width="128px" height="127px" viewBox="0 0 128 127" version="1.1" xmlns="http://www.w3.org/2000/svg" xmlns:xlink="http://www.w3.org/1999/xlink">
    <defs></defs>
    <g stroke="none" stroke-width="1" fill="none" fill-rule="evenodd">
        <g transform="translate(-796.000000, -241.000000)" fill="#64728A">
            <g transform="translate(184.000000, 200.000000)">
                <g transform="translate(596.000000, 0.000000)">
                    <path d="M16.9555009,167.943109 L20.1495058,142.958765 L62.9863236,126.58337 L62.0487534,115.103192 C62.0487534,115.103192 60.2221989,113.226858 58.414482,102.098836 C58.414482,102.098836 54.9742348,102.154946 54.0767586,100.920425 C53.1792825,99.6859037 51.8692043,96.6884568 50.9210039,90.7297422 C50.3123697,86.9049419 50.9622733,86.1125198 53.4681695,84.9801029 L52.5255185,80.2211358 C52.5255185,80.2211358 51.9885983,70.8789052 53.1908339,57.6090859 C53.1908339,57.6090859 54.2822072,59.2050477 55.5892558,59.9226257 L55.6837949,50.8327147 L57.2376356,55.7835394 L57.9367724,46.0930168 L62.36063,51.3428179 L59.202095,40.957211 C59.202095,40.957211 70.7005947,48.7580508 71.2836447,48.0045311 C71.8666948,47.2510113 67.9273174,41.8495648 67.9273174,41.8495648 C67.9273174,41.8495648 84.0904409,44.2970185 93.7443187,48.8329568 C96.543033,50.3022704 96.543033,49.0247349 96.543033,49.0247349 C96.543033,49.0247349 96.693689,50.1359836 97.7469972,50.8327145 C98.8003054,51.5294454 100.183757,49.9874606 100.183757,49.9874606 C100.183757,49.9874606 99.7339494,51.7453322 100.886481,53.1049456 C102.039012,54.4645591 104.630883,57.1020944 105.439028,61.5293904 C106.247173,65.9566865 107.103258,70.9229386 106.271143,79.1203688 C106.082138,80.9823271 105.693985,82.8422902 105.322032,84.5653729 C105.322032,84.5653729 107.948102,86.0045883 107.948101,86.704706 C107.9481,87.4048238 107.853849,90.4442492 106.646439,95.0654419 C105.439029,99.6866345 104.984892,101.241544 100.866173,101.991627 L99.8496553,109.097022 C99.8496553,109.097022 99.2477148,112.65564 96.8495289,115.645884 L96.32083,126.953181 L138.500328,142.993271 L143.325847,167.943112 L16.9555009,167.943109 Z"></path>
                </g>
            </g>
        </g>
    </g>
</svg>