<svg width="128" height="127" viewBox="0 0 128 127" xmlns="http://www.w3.org/2000/svg"><path d="M.956 126.943L4.15 101.96l42.836-16.377-.937-11.48S44.22 72.227 42.41 61.1c0 0-3.44.055-4.337-1.18-.898-1.234-2.208-4.232-3.156-10.19-.61-3.825.04-4.617 2.547-5.75l-.942-4.76s-.537-9.34.665-22.61c0 0 1.093 1.595 2.4 2.313l.095-9.09 1.554 4.95.7-9.69 4.42 5.25L43.2-.043s11.5 7.8 12.084 7.048C55.867 6.25 51.927.85 51.927.85S68.09 3.297 77.744 7.833c2.8 1.47 2.8.192 2.8.192s.15 1.11 1.203 1.808c1.053.696 2.437-.846 2.437-.846s-.45 1.758.702 3.118c1.153 1.36 3.745 3.997 4.553 8.424.805 4.425 1.66 9.39.83 17.59-.19 1.86-.578 3.72-.95 5.443 0 0 2.626 1.44 2.626 2.14 0 .7-.094 3.74-1.302 8.36-1.207 4.622-1.66 6.177-5.78 6.927l-1.016 7.106s-.603 3.56-3 6.55l-.53 11.306 42.18 16.04 4.825 24.95H.955z" fill="#64728A" fill-rule="evenodd"/></svg>